<svg width="1200" height="274" viewBox="0 0 1200 274" fill="none" xmlns="http://www.w3.org/2000/svg">
<g clip-path="url(#clip0_339_16)">
<path d="M124.361 143.014C107.191 143.014 93.2711 126.311 93.2711 105.706C93.2711 85.1016 107.191 68.3982 124.361 68.3982C141.532 68.3982 155.451 85.1016 155.451 105.706C155.451 126.311 141.532 143.014 124.361 143.014Z" fill="#0A3624"/>
<path fill-rule="evenodd" clip-rule="evenodd" d="M111.742 0C53.3623 0 6.03594 47.3263 6.03594 105.706C6.03594 164.086 53.3623 211.413 111.742 211.413C170.122 211.413 217.449 164.086 217.449 105.706C217.449 47.3263 170.122 0 111.742 0ZM43.344 105.706C43.344 67.931 73.967 37.3081 111.742 37.3081C149.518 37.3081 180.14 67.931 180.14 105.706C180.14 143.482 149.518 174.105 111.742 174.105C73.967 174.105 43.344 143.482 43.344 105.706Z" fill="#0A3624"/>
<path d="M219.739 210.372C226.19 218.404 224.909 230.146 216.877 236.597C204.489 246.548 190.726 254.709 175.989 260.813C155.62 269.25 133.789 273.593 111.742 273.593C89.6948 273.593 67.8635 269.25 47.4946 260.813C32.9208 254.776 19.2999 246.728 7.01887 236.927C-1.03351 230.501 -2.35169 218.764 4.07463 210.711C10.501 202.659 22.2383 201.341 30.2906 207.767C39.8426 215.39 50.4366 221.65 61.7717 226.345C77.6143 232.907 94.5941 236.285 111.742 236.285C128.89 236.285 145.87 232.907 161.712 226.345C173.174 221.597 183.878 215.25 193.514 207.51C201.546 201.059 213.287 202.34 219.739 210.372Z" fill="#0A3624"/>
<path d="M420.774 124.267H359.906V158.218H375.911C375.911 167.918 372.759 181.498 360.634 181.498C344.132 181.498 344.14 153.667 344.143 141.967L344.144 141.485C344.144 129.117 344.144 92.0143 362.089 92.0143C370.576 92.0143 374.214 101.472 374.941 108.504L417.379 92.9843C406.952 68.9765 389.006 52.9714 361.846 52.9714C314.801 52.9714 299.523 97.8344 299.523 137.605C299.523 177.618 315.043 220.541 361.846 220.541C382.216 220.541 400.404 211.083 410.104 192.653C419.562 174.465 420.774 150.942 420.774 130.815V124.267Z" fill="#0A3624"/>
<path fill-rule="evenodd" clip-rule="evenodd" d="M550.894 135.18C550.894 97.5919 534.161 52.9714 490.026 52.9714C445.648 52.9714 427.945 97.1069 427.945 135.18C427.945 156.52 432.068 181.983 446.133 198.958C457.046 212.053 473.051 220.541 490.268 220.541C535.616 220.541 550.894 173.01 550.894 135.18ZM505.546 136.877C505.546 147.305 504.334 179.558 489.298 179.558C474.263 179.558 473.293 147.062 473.293 136.635C473.293 126.207 474.748 93.7118 489.783 93.7118C504.819 93.7118 505.546 126.45 505.546 136.877Z" fill="#0A3624"/>
<path fill-rule="evenodd" clip-rule="evenodd" d="M681.211 135.18C681.211 97.5919 664.478 52.9714 620.343 52.9714C575.965 52.9714 558.262 97.1069 558.262 135.18C558.262 156.52 562.385 181.983 576.45 198.958C587.362 212.053 603.368 220.541 620.585 220.541C665.933 220.541 681.211 173.01 681.211 135.18ZM635.863 136.877C635.863 147.305 634.65 179.558 619.615 179.558C604.58 179.558 603.61 147.062 603.61 136.635C603.61 126.207 605.065 93.7118 620.1 93.7118C635.135 93.7118 635.863 126.45 635.863 136.877Z" fill="#0A3624"/>
<path fill-rule="evenodd" clip-rule="evenodd" d="M692.701 55.8814V217.631H733.442C759.632 217.631 779.76 210.598 793.097 186.59C801.585 171.555 804.253 154.095 804.253 136.877C804.253 90.0743 779.76 55.8814 730.289 55.8814H692.701ZM736.352 96.3794C756.48 96.3794 759.632 123.055 759.632 138.09C759.632 153.852 756.722 177.86 736.352 178.588V96.3794Z" fill="#0A3624"/>
<path fill-rule="evenodd" clip-rule="evenodd" d="M815.677 55.8814V217.631H876.788C904.675 217.631 925.531 199.928 925.531 171.313C925.531 149.245 913.89 137.362 892.308 134.695C911.95 132.997 922.378 121.357 922.378 101.714C922.378 85.9517 914.86 71.1591 901.038 63.1565C890.61 57.0939 878.242 55.8814 866.36 55.8814H815.677ZM859.327 91.0443C860.782 90.8018 862.237 90.8018 863.692 90.8018C872.665 90.8018 879.212 95.1668 879.212 104.867C879.212 114.81 870.967 118.932 861.995 118.932C861.025 118.932 860.297 118.932 859.327 118.69V91.0443ZM859.327 151.67C859.934 151.67 860.479 151.609 861.025 151.549C861.57 151.488 862.116 151.427 862.722 151.427C872.665 151.427 880.91 156.035 880.91 166.948C880.91 177.618 872.907 182.71 862.965 182.71C861.752 182.71 860.54 182.71 859.327 182.468V151.67Z" fill="#0A3624"/>
<path d="M980.645 217.631V55.8814H936.994V217.631H980.645Z" fill="#0A3624"/>
<path fill-rule="evenodd" clip-rule="evenodd" d="M996.029 55.8814V217.631H1036.77C1062.96 217.631 1083.09 210.598 1096.42 186.59C1104.91 171.555 1107.58 154.095 1107.58 136.877C1107.58 90.0743 1083.09 55.8814 1033.62 55.8814H996.029ZM1039.68 96.3794C1059.81 96.3794 1062.96 123.055 1062.96 138.09C1062.96 153.852 1060.05 177.86 1039.68 178.588V96.3794Z" fill="#0A3624"/>
<path d="M1195.39 61.2165C1185.69 56.1239 1175.02 52.9714 1164.11 52.9714C1135.01 52.9714 1114.88 77.9491 1114.88 106.079C1114.88 130.945 1130.06 142.777 1141.99 152.084C1149.73 158.116 1156.11 163.087 1156.11 169.858C1156.11 176.89 1149.56 180.528 1143.25 180.528C1131.61 180.528 1122.16 171.798 1115.61 162.825V213.508C1126.04 217.873 1137.19 220.541 1148.59 220.541C1179.63 220.541 1200 195.805 1200 165.735C1200 139.771 1184.21 128.131 1172.06 119.175C1164.46 113.577 1158.29 109.028 1158.29 102.684C1158.29 96.6219 1164.11 92.9843 1169.69 92.9843C1180.6 92.9843 1189.81 102.199 1195.39 110.687V61.2165Z" fill="#0A3624"/>
</g>
<defs>
<clipPath id="clip0_339_16">
<rect width="1200" height="273.593" fill="white"/>
</clipPath>
</defs>
</svg>
